<?xml version="1.0" standalone="no"?>
<!DOCTYPE svg PUBLIC "-//W3C//DTD SVG 1.0//EN" "http://www.w3.org/TR/2001/REC-SVG-20010904/DTD/svg10.dtd">
<svg xmlns="http://www.w3.org/2000/svg" xmlns:xlink="http://www.w3.org/1999/xlink" id="body_1" width="563" height="422">

<defs>
    <radialGradient cx="2.592485%" cy="86.92515%" r="127.080574%" gradientUnits="objectBoundingBox" id="1">
        <stop offset="17%" stop-color="#FFFFFF" stop-opacity="1"/>
        <stop offset="30.000002%" stop-color="#F6EDE4" stop-opacity="1"/>
        <stop offset="69%" stop-color="#DEBE9B" stop-opacity="1"/>
        <stop offset="87%" stop-color="#D4AC7F" stop-opacity="1"/>
    </radialGradient>
<mask id="406">
<path  transform="matrix(1.09 0 0 1.09 27.04 24.74)"   d="M34.329998 17.74C 34.329998 26.605438 30.804459 35.11684 24.535648 41.38565C 18.266838 47.65446 9.755437 51.18 0.8899994 51.18C -7.975438 51.18 -16.48684 47.65446 -22.75565 41.38565C -29.02446 35.11684 -32.55 26.605438 -32.55 17.74C -32.55 8.874562 -29.02446 0.36316094 -22.75565 -5.90565C -16.48684 -12.174461 -7.975438 -15.699999 0.8899994 -15.699999C 9.755437 -15.699999 18.266838 -12.174461 24.535648 -5.90565C 30.804459 0.36316094 34.329998 8.874562 34.329998 17.74z" fill="white"/>
</mask>
</defs>

<g transform="matrix(4.835014 0 0 4.835014 147.32837 -0)">
    <path transform="matrix(1 0 0 1 -0.25 -0.36)"  d="M28 87.36C 27.57293 87.0508 27.21527 86.65566 26.95 86.2L26.95 86.2L26.890001 86.11L26.78 86.11C 8.65 81.86 -1.45 54 0.83 31.71C 1.0725784 29.263693 1.5038567 26.83984 2.12 24.46C 2.6897125 22.260122 3.4699783 20.120258 4.45 18.07C 5.420883 16.015614 6.6839695 14.112565 8.2 12.42C 10.908731 9.253327 14.834188 7.3851013 19 7.28C 19.16439 7.2818966 19.305103 7.1625037 19.33 7C 20.171814 5.5989666 21.594114 4.645878 23.21 4.4L23.21 4.4L23.4 4.4L23.4 4.21C 23.919525 2.0969932 25.824167 0.61882496 28 0.64C 30.143745 0.65848637 32.010612 2.107764 32.56 4.18L32.56 4.18L32.56 4.37L32.75 4.37C 34.385044 4.6142106 35.82404 5.57966 36.67 7C 36.70049 7.1738944 36.86606 7.290239 37.039997 7.26C 41.193684 7.3709974 45.106377 9.234703 47.809998 12.39C 49.58596 14.3758335 51.018883 16.643505 52.049995 19.1L52.049995 19.1L52.279995 19.65C 53.821327 23.488323 54.79489 27.530807 55.169994 31.65C 57.45 54 47.35 81.86 29.23 86.08L29.23 86.08L29.119999 86.08L29.06 86.17C 28.795246 86.63748 28.433884 87.04317 28 87.36z" stroke="none" mask="url(#406)" fill="url(#1)"  />
    <path transform="matrix(1 0 0 1 -0.25 -0.36)"  d="M55.43 31.68C 55.24675 29.83195 54.959637 27.995777 54.57 26.18C 54.21298 24.508554 53.748676 22.86177 53.18 21.25C 52.58042 19.545368 51.83429 17.89585 50.95 16.32C 50.10706 14.845056 49.100727 13.469734 47.95 12.219999C 45.202415 9.009803 41.223946 7.1132164 37 7L37 7L36.94 7C 36.077484 5.4393034 34.54183 4.3650813 32.78 4.09C 32.227264 1.900768 30.25793 0.36685228 27.999998 0.36685228C 25.742067 0.36685228 23.772734 1.900768 23.219997 4.09C 21.458172 4.3650823 19.922516 5.4393044 19.06 7L19.06 7L19 7C 14.756893 7.1016874 10.757308 9.003307 8 12.23C 6.8492737 13.479734 5.8429413 14.855056 5 16.33C 4.1157017 17.905869 3.369587 19.555347 2.77 21.26C 2.2013092 22.871803 1.7370262 24.518517 1.38 26.19C 0.9903641 28.00576 0.7032509 29.841965 0.52 31.69C -1.73 54.3 8.44 82.1 26.73 86.36C 27.020502 86.90061 27.461687 87.34527 28 87.64C 28.538313 87.34527 28.979498 86.90061 29.27 86.36C 47.56 82.1 57.73 54.3 55.43 31.68zM28 1.23C 29.791054 1.1399627 31.41266 2.2829275 31.93 4C 30.311554 4.126967 28.863373 5.053652 28.07 6.4700003C 28.057724 6.5071635 28.032999 6.538953 28 6.5600004C 27.965729 6.540384 27.940577 6.5080447 27.93 6.4700003C 27.136625 5.053652 25.688444 4.126967 24.07 4C 24.58734 2.2829275 26.208946 1.1399627 28 1.23zM26.14 5.52C 26.924576 5.9894094 27.495031 6.7464285 27.73 7.63C 27.747831 7.792559 27.850628 7.933429 28 8C 28.16476 7.9252753 28.270422 7.7609134 28.27 7.58C 28.504967 6.6964283 29.075422 5.93941 29.86 5.4700003C 30.850756 4.8262887 32.067238 4.630792 33.209797 4.9316654C 34.352352 5.232539 35.314777 6.001814 35.86 7.05C 35.294888 7.1539965 34.737076 7.294286 34.190002 7.4700003C 33.313583 7.739878 32.503017 8.189435 31.810001 8.79C 30.08405 10.377891 29.014019 12.5536175 28.810001 14.889999C 28.140001 22.199999 36.530003 21.05 36.95 21.02C 38.030003 21.02 38.850002 19.310001 38.850002 17.02C 38.850002 14.73 38.010002 13.02 36.95 13.02C 36.3 13.02 35.18 13.540001 35.07 15.570001C 35 17.1 35.7 19 36.6 19.11C 37.07 19.17 37.489998 18.35 37.6 17.51C 37.71 16.67 37.66 15.64 37.01 15.51C 36.911854 15.485911 36.80816 15.501907 36.72184 15.554451C 36.635517 15.606995 36.57368 15.691758 36.55 15.79C 36.778374 16.195688 36.930866 16.639612 37 17.1C 37 18.35 35.72 17.73 35.88 15.740001C 36 14 36.89 14.09 36.93 14.09C 37.43 14.09 38.19 15.09 38.19 17.09C 38.19 18.84 37.35 20.720001 35.73 19.74C 34.37 18.74 33.84 16.46 34.21 14.74C 34.379997 13.929999 35.079998 11.74 37.34 11.74C 40.6 11.74 43.64 13.45 46.06 16.64C 45.79 17.49 44.11 20.74 38.780003 23.849998L38.780003 23.849998L38.49 23.999998C 36.94597 23.29034 35.25851 22.948055 33.56 22.999998C 31.994827 23.111715 30.44228 23.359318 28.920002 23.739998C 28.620054 23.824896 28.311386 23.875221 28.000002 23.889997C 27.688618 23.875221 27.37995 23.824896 27.080002 23.739998C 25.557713 23.359316 24.005188 23.111715 22.44 23C 20.741488 22.94806 19.05403 23.290344 17.51 24L17.51 24L17.22 23.85C 11.879999 20.74 10.219999 17.49 9.939999 16.64C 12.359999 13.449999 15.399999 11.74 18.66 11.74C 20.92 11.74 21.66 13.95 21.79 14.74C 22.17 16.51 21.630001 18.79 20.27 19.74C 18.66 20.74 17.810001 18.84 17.810001 17.09C 17.810001 15.09 18.570002 14.09 19.070002 14.09C 19.070002 14.09 20.010002 13.9800005 20.160002 15.74C 20.330002 17.74 19.070002 18.35 19.04 17.1C 19.086838 16.633219 19.219032 16.179012 19.43 15.76C 19.380835 15.569372 19.194223 15.447858 19 15.48C 18.35 15.639999 18.29 16.779999 18.41 17.48C 18.529999 18.18 18.97 19.14 19.41 19.08C 20.31 18.96 21.01 17.08 20.93 15.639999C 20.83 13.639999 19.7 13.089999 19.050001 13.089999C 17.990002 13.089999 17.150002 14.799999 17.150002 17.09C 17.150002 19.380001 17.970001 21.09 19.050001 21.09C 19.470001 21.09 27.86 22.27 27.190002 14.96C 26.985985 12.623617 25.915955 10.44789 24.190002 8.860001C 23.496986 8.259435 22.686422 7.809878 21.810001 7.5400004C 21.250307 7.3558407 20.679071 7.2088556 20.1 7.1C 20.644295 6.0400066 21.61416 5.261894 22.766943 4.960338C 23.919725 4.6587825 25.146376 4.8623095 26.14 5.52zM10.28 36.18C 10.130291 37.277817 10.036831 38.382637 10 39.49C 9.774841 44.650963 10.451649 49.811634 12 54.74C 13.052113 57.980568 14.436131 61.10382 16.130001 64.06C 14.640102 65.250755 12.877003 66.05154 11 66.39C 6.253479 56.478783 4.0308685 45.547825 4.53 34.57C 6.3297625 35.459846 8.279837 36.005867 10.28 36.18zM4.56 34C 5 26.69 6.85 20.95 9.559999 17.13C 10.039999 18.369999 12.129999 21.48 16.949999 24.31C 12.849998 26.779999 10.949999 31.869999 10.369999 35.67C 8.343946 35.49222 6.371219 34.92519 4.56 34zM16.41 64.53C 19.49 69.83 22.529999 72.99 24.86 74.659996C 24.05428 76.375404 22.838474 77.865974 21.32 79C 17.32 76.3 13.92 72 11.25 66.87C 13.134393 66.52025 14.905354 65.71713 16.41 64.53zM25.33 75C 26.155577 75.59618 27.052559 76.08667 28 76.46C 28.947441 76.08667 29.844423 75.59618 30.67 75C 31.48831 76.70457 32.69784 78.19164 34.2 79.34C 33.073746 80.05962 31.873543 80.65637 30.62 81.119995C 30.62 81.119995 30.62 81.03 30.62 80.99C 30.36 79.67 28.62 79.4 28.01 79.4C 27.4 79.4 25.66 79.67 25.4 80.99C 25.4 80.99 25.4 81.079994 25.4 81.119995C 24.146458 80.65637 22.946255 80.05962 21.82 79.34C 23.314867 78.18933 24.517395 76.702446 25.33 75zM31.14 74.68C 33.47 73.01 36.51 69.85 39.59 64.55C 41.092655 65.7443 42.86377 66.55435 44.75 66.91C 42.08 72 38.69 76.32 34.68 79C 33.161526 77.86597 31.945719 76.37541 31.14 74.66zM39.86 64.07C 41.558582 61.107845 42.945965 57.97786 44 54.73C 44.760353 52.3416 45.315693 49.892754 45.66 47.41C 46.009575 44.78544 46.123363 42.134872 46 39.49C 45.949905 38.381943 45.843098 37.27713 45.68 36.18C 47.680164 36.005867 49.630234 35.459846 51.43 34.57C 51.94158 45.54446 49.732742 56.47528 45 66.39C 43.118546 66.050186 41.351746 65.24584 39.86 64.05zM45.64 35.67C 45.02 31.869999 43.14 26.869999 39.059998 24.309998C 43.879997 21.479998 45.979996 18.369997 46.449997 17.129997C 49.139996 20.949997 50.999996 26.689999 51.449997 34C 49.637356 34.91825 47.664703 35.478474 45.64 35.65zM25 84.76C 22.914886 84.06519 20.938618 83.07874 19.130001 81.83C 17.98185 81.040276 16.895386 80.16442 15.880001 79.21C 15.052099 78.43026 14.267576 77.605675 13.530001 76.74C 13.0233345 76.153336 12.536668 75.55 12.070001 74.93C 9.834896 71.931 7.961933 68.67848 6.4900007 65.24C 5.069996 61.928604 3.932621 58.503098 3.09 55C 2.2136383 51.448586 1.6151657 47.83435 1.3 44.19C 0.97286224 40.585037 0.94944763 36.958878 1.2299999 33.35C 1.4 31.43 1.63 29.5 2 27.59C 2.3293152 25.694918 2.7972298 23.826595 3.4 22C 3.9601307 20.323076 4.662691 18.697155 5.5 17.14C 6.352228 15.529176 7.4111824 14.0365505 8.65 12.699999C 9.812594 11.463377 11.162411 10.417271 12.65 9.599998C 13.27034 9.261459 13.915524 8.970624 14.58 8.729999C 14.92 8.609999 15.253334 8.503332 15.58 8.409999C 15.907961 8.303866 16.241875 8.217049 16.58 8.149999C 17.425095 8.001699 18.282036 7.931404 19.14 7.9399986C 20.499617 7.9192815 21.839775 8.264683 23.02 8.939999C 24.97874 10.336165 26.205307 12.5395775 26.36 14.939999C 26.75 19.46 22.150002 20.169998 21.25 20.159998C 21.11 20.159998 21.04 20.029999 21.49 19.569998C 22.514614 18.081583 22.876663 16.235132 22.49 14.469997C 22.05 12.399998 20.59 10.779997 18.49 10.779997C 15.357161 10.878837 12.410295 12.290573 10.37 14.669997C 8.396225 16.997257 6.9101524 19.697353 6 22.61C 4.73822 26.28696 3.9845848 30.119059 3.76 34C 3.5375595 37.543736 3.6178474 41.099922 4 44.63C 4.3686905 48.205334 5.0173416 51.746155 5.94 55.22C 6.831524 58.59864 8.012562 61.894165 9.47 65.07C 10.924004 68.28163 12.764244 71.303925 14.950001 74.07C 17.148773 76.920074 19.9177 79.2803 23.08 81C 23.793545 81.38225 24.531858 81.716324 25.29 82C 25.290625 83.04155 25.533707 84.06866 26 85C 25.660957 84.946014 25.326614 84.865776 25 84.76zM28.29 86.310005C 28.211716 86.411285 28.10309 86.48487 27.980001 86.520004C 27.856913 86.48487 27.748287 86.411285 27.670002 86.310005C 26.441584 84.886734 25.89073 83.0007 26.160002 81.14001C 26.280003 80.50001 27.360003 80.21001 27.980001 80.200005C 28.6 80.19 29.680002 80.50001 29.800001 81.14001C 30.071716 82.99446 29.528448 84.87584 28.31 86.3zM54.7 44.19C 54.384834 47.834347 53.78636 51.44858 52.91 55C 52.058746 58.490074 50.91468 61.90219 49.489998 65.2C 48.01807 68.63847 46.1451 71.891 43.909996 74.89C 43.44333 75.51 42.956665 76.113335 42.449997 76.7C 41.712418 77.565674 40.927902 78.39026 40.1 79.17C 39.08461 80.12441 37.998146 81.00027 36.85 81.79C 35.049904 83.05108 33.080376 84.050995 31 84.76C 30.673386 84.865776 30.339043 84.946014 30 85C 30.467842 84.03505 30.697594 82.97202 30.67 81.9C 31.428144 81.616325 32.16646 81.28224 32.88 80.9C 36.036568 79.1978 38.80506 76.85837 41.010002 74.03C 43.19576 71.26392 45.036 68.24163 46.49 65.03C 47.947433 61.854164 49.12847 58.55864 50.02 55.18C 50.95411 51.720345 51.616135 48.19292 52 44.63C 52.382145 41.09992 52.46244 37.543736 52.24 34C 52.015423 30.11906 51.261784 26.286964 50 22.61C 49.05139 19.714092 47.531395 17.03795 45.53 14.740001C 43.489704 12.360575 40.542843 10.948838 37.41 10.85C 35.29 10.85 33.83 12.47 33.41 14.540001C 33.02334 16.305136 33.385384 18.151587 34.41 19.640001C 34.86 20.1 34.79 20.230001 34.65 20.230001C 33.75 20.230001 29.140001 19.520002 29.54 15.010002C 29.694695 12.609581 30.92126 10.406169 32.88 9.010002C 34.060226 8.334686 35.400383 7.989285 36.760002 8.010002C 37.617966 8.001408 38.474907 8.071704 39.320004 8.220002C 39.658154 8.286942 39.99207 8.373759 40.320004 8.480002C 40.66667 8.573337 41.000004 8.680003 41.320004 8.800002C 41.984478 9.0406275 42.629665 9.331463 43.250004 9.670002C 44.73759 10.487274 46.087406 11.5333805 47.250004 12.770002C 48.488823 14.106555 49.54778 15.59918 50.400005 17.210003C 51.267998 18.741314 52.003983 20.34377 52.6 22C 53.20276 23.826569 53.670692 25.69495 54 27.59C 54.35 29.5 54.58 31.43 54.74 33.36C 55.029976 36.96476 55.016586 40.587486 54.7 44.19z" stroke="none" fill="#282728" fill-rule="nonzero" />
    <path transform="matrix(1 0 0 1 -0.25 -0.36)"  d="M45 39.63C 44.89 36.940002 44.1 28.730001 38.52 25.170002C 37.189087 24.435135 35.69994 24.033684 34.18 24C 31.44 23.82 29.41 24.87 28.04 24.91L28.04 24.91L28 24.91C 26.63 24.91 24.58 23.82 21.84 24C 20.306114 24.038654 18.80532 24.454206 17.470001 25.21C 11.85 28.73 11.07 36.94 11 39.63C 10.741013 46.148613 11.95084 52.642044 14.54 58.63C 18.36 67.12 23 73.14 27.63 75.19L27.63 75.19L28 75.35L28.37 75.189995C 32.98 73.189995 37.64 67.13 41.510002 58.619995C 44.080227 52.631058 45.272892 46.14145 45 39.63z" stroke="none" fill="#C5050C" fill-rule="nonzero" />
    <path transform="matrix(1 0 0 1 -0.25 -0.36)"  d="M36.3 33.18L36.3 35L36.67 35L36.85 35C 37.149094 34.98495 37.442574 35.085163 37.67 35.28C 37.909763 35.596783 37.987473 36.00752 37.879997 36.39C 37.879997 36.39 34.139996 52.58 33.429996 55.66C 32.609997 51.76 28.169996 30.48 28.169996 30.48L28.169996 30.48L28.169996 30.39L27.27 30.39L27.27 30.49L23.4 55.32L19 36.37C 18.99516 36.27673 18.99516 36.18327 19 36.09C 18.95474 35.727596 19.067688 35.36325 19.31 35.09C 19.511427 34.950764 19.756943 34.890274 20 34.92L20 34.92L20.37 34.92L20.37 33.12L14.13 33.12L14.13 34.879997L14.41 34.879997C 14.862577 34.945244 15.234599 35.270275 15.36 35.71L15.36 35.71L23 68.48L23 68.57L24.1 68.57L24.1 68.47L27.66 45.170002L32.19 68.48L32.19 68.57L33.19 68.57L40.44 35.79C 40.556767 35.3368 40.972233 35.0252 41.44 35.04L41.44 35.04L41.51 35.04L41.87 35.04L41.87 33.18L36.3 33.18z" stroke="none" fill="#FFFFFF" fill-rule="nonzero" />
</g>
</svg>